<mxfile host="app.diagrams.net" agent="Mozilla/5.0 (Macintosh; Intel Mac OS X 10.15; rv:133.0) Gecko/20100101 Firefox/133.0" version="26.0.8">
  <diagram name="Page-1" id="M5w_tiqoEu-Er8kcB2RE">
    <mxGraphModel dx="2390" dy="1105" grid="1" gridSize="10" guides="1" tooltips="1" connect="1" arrows="1" fold="1" page="1" pageScale="1" pageWidth="1100" pageHeight="850" math="0" shadow="0">
      <root>
        <mxCell id="0" />
        <mxCell id="1" parent="0" />
        <mxCell id="KeG7oWH1lTcmquNV3ncV-1" value="Start Simulation" style="rounded=1;whiteSpace=wrap;arcSize=50;strokeWidth=2;" vertex="1" parent="1">
          <mxGeometry x="921" y="20" width="140" height="39" as="geometry" />
        </mxCell>
        <mxCell id="KeG7oWH1lTcmquNV3ncV-2" value="Is Bext Installed?" style="rhombus;strokeWidth=2;whiteSpace=wrap;" vertex="1" parent="1">
          <mxGeometry x="904" y="109" width="174" height="174" as="geometry" />
        </mxCell>
        <mxCell id="KeG7oWH1lTcmquNV3ncV-3" value="Display installation instructions &amp; Exit" style="whiteSpace=wrap;strokeWidth=2;" vertex="1" parent="1">
          <mxGeometry x="706" y="393" width="260" height="78" as="geometry" />
        </mxCell>
        <mxCell id="KeG7oWH1lTcmquNV3ncV-4" value="Set Constants (WIDTH, HEIGHT, TREE, FIRE, EMPTY, GROW_CHANCE, FIRE_CHANCE, PAUSE_LENGTH)" style="whiteSpace=wrap;strokeWidth=2;" vertex="1" parent="1">
          <mxGeometry x="1016" y="357" width="260" height="150" as="geometry" />
        </mxCell>
        <mxCell id="KeG7oWH1lTcmquNV3ncV-5" value="Create New Forest" style="whiteSpace=wrap;strokeWidth=2;" vertex="1" parent="1">
          <mxGeometry x="1050" y="557" width="193" height="54" as="geometry" />
        </mxCell>
        <mxCell id="KeG7oWH1lTcmquNV3ncV-6" value="Clear Console" style="whiteSpace=wrap;strokeWidth=2;" vertex="1" parent="1">
          <mxGeometry x="1067" y="661" width="158" height="54" as="geometry" />
        </mxCell>
        <mxCell id="KeG7oWH1lTcmquNV3ncV-7" value="Main Simulation Loop" style="whiteSpace=wrap;strokeWidth=2;" vertex="1" parent="1">
          <mxGeometry x="1040" y="765" width="213" height="54" as="geometry" />
        </mxCell>
        <mxCell id="KeG7oWH1lTcmquNV3ncV-8" value="Display Forest Grid" style="whiteSpace=wrap;strokeWidth=2;" vertex="1" parent="1">
          <mxGeometry x="651" y="909" width="196" height="54" as="geometry" />
        </mxCell>
        <mxCell id="KeG7oWH1lTcmquNV3ncV-9" value="Create Next Forest State" style="whiteSpace=wrap;strokeWidth=2;" vertex="1" parent="1">
          <mxGeometry x="630" y="1053" width="238" height="54" as="geometry" />
        </mxCell>
        <mxCell id="KeG7oWH1lTcmquNV3ncV-10" value="Loop Through Each Cell" style="whiteSpace=wrap;strokeWidth=2;" vertex="1" parent="1">
          <mxGeometry x="635" y="1157" width="228" height="54" as="geometry" />
        </mxCell>
        <mxCell id="KeG7oWH1lTcmquNV3ncV-11" value="Empty?" style="rhombus;strokeWidth=2;whiteSpace=wrap;" vertex="1" parent="1">
          <mxGeometry x="696" y="1285" width="105" height="105" as="geometry" />
        </mxCell>
        <mxCell id="KeG7oWH1lTcmquNV3ncV-12" value="Chance to Grow a Tree (GROW_CHANCE)" style="whiteSpace=wrap;strokeWidth=2;" vertex="1" parent="1">
          <mxGeometry x="20" y="2090" width="260" height="78" as="geometry" />
        </mxCell>
        <mxCell id="KeG7oWH1lTcmquNV3ncV-13" value="UpdateNextForest" style="whiteSpace=wrap;strokeWidth=2;" vertex="1" parent="1">
          <mxGeometry x="665" y="2218" width="190" height="54" as="geometry" />
        </mxCell>
        <mxCell id="KeG7oWH1lTcmquNV3ncV-14" value="Tree?" style="rhombus;strokeWidth=2;whiteSpace=wrap;" vertex="1" parent="1">
          <mxGeometry x="840" y="1463" width="91" height="91" as="geometry" />
        </mxCell>
        <mxCell id="KeG7oWH1lTcmquNV3ncV-15" value="Lightning Strike?" style="rhombus;strokeWidth=2;whiteSpace=wrap;" vertex="1" parent="1">
          <mxGeometry x="679" y="1627" width="172" height="172" as="geometry" />
        </mxCell>
        <mxCell id="KeG7oWH1lTcmquNV3ncV-16" value="Tree Catches Fire" style="whiteSpace=wrap;strokeWidth=2;" vertex="1" parent="1">
          <mxGeometry x="330" y="2102" width="185" height="54" as="geometry" />
        </mxCell>
        <mxCell id="KeG7oWH1lTcmquNV3ncV-17" value="Fire Nearby?" style="rhombus;strokeWidth=2;whiteSpace=wrap;" vertex="1" parent="1">
          <mxGeometry x="712" y="1873" width="143" height="143" as="geometry" />
        </mxCell>
        <mxCell id="KeG7oWH1lTcmquNV3ncV-18" value="Spread Fire to Adjacent Trees" style="whiteSpace=wrap;strokeWidth=2;" vertex="1" parent="1">
          <mxGeometry x="565" y="2090" width="260" height="78" as="geometry" />
        </mxCell>
        <mxCell id="KeG7oWH1lTcmquNV3ncV-19" value="Fire?" style="rhombus;strokeWidth=2;whiteSpace=wrap;" vertex="1" parent="1">
          <mxGeometry x="986" y="1901" width="88" height="88" as="geometry" />
        </mxCell>
        <mxCell id="KeG7oWH1lTcmquNV3ncV-20" value="Tree Burns to Empty" style="whiteSpace=wrap;strokeWidth=2;" vertex="1" parent="1">
          <mxGeometry x="928" y="2102" width="205" height="54" as="geometry" />
        </mxCell>
        <mxCell id="KeG7oWH1lTcmquNV3ncV-21" value="Replace Old Forest with New Forest" style="whiteSpace=wrap;strokeWidth=2;" vertex="1" parent="1">
          <mxGeometry x="630" y="2322" width="260" height="78" as="geometry" />
        </mxCell>
        <mxCell id="KeG7oWH1lTcmquNV3ncV-22" value="Pause for PAUSE_LENGTH Seconds" style="whiteSpace=wrap;strokeWidth=2;" vertex="1" parent="1">
          <mxGeometry x="1059" y="2450" width="260" height="78" as="geometry" />
        </mxCell>
        <mxCell id="KeG7oWH1lTcmquNV3ncV-23" value="Exit?" style="rhombus;strokeWidth=2;whiteSpace=wrap;" vertex="1" parent="1">
          <mxGeometry x="1122" y="892" width="87" height="87" as="geometry" />
        </mxCell>
        <mxCell id="KeG7oWH1lTcmquNV3ncV-24" value="End Simulation" style="rounded=1;whiteSpace=wrap;arcSize=50;strokeWidth=2;" vertex="1" parent="1">
          <mxGeometry x="1100" y="1061" width="131" height="39" as="geometry" />
        </mxCell>
        <mxCell id="KeG7oWH1lTcmquNV3ncV-25" value="" style="curved=1;startArrow=none;endArrow=block;exitX=0.5;exitY=1;entryX=0.5;entryY=0;rounded=0;" edge="1" parent="1" source="KeG7oWH1lTcmquNV3ncV-1" target="KeG7oWH1lTcmquNV3ncV-2">
          <mxGeometry relative="1" as="geometry">
            <Array as="points" />
          </mxGeometry>
        </mxCell>
        <mxCell id="KeG7oWH1lTcmquNV3ncV-26" value="No" style="curved=1;startArrow=none;endArrow=block;exitX=0;exitY=0.9;entryX=0.5;entryY=0;rounded=0;" edge="1" parent="1" source="KeG7oWH1lTcmquNV3ncV-2" target="KeG7oWH1lTcmquNV3ncV-3">
          <mxGeometry relative="1" as="geometry">
            <Array as="points">
              <mxPoint x="836" y="320" />
            </Array>
          </mxGeometry>
        </mxCell>
        <mxCell id="KeG7oWH1lTcmquNV3ncV-27" value="Yes" style="curved=1;startArrow=none;endArrow=block;exitX=1;exitY=0.9;entryX=0.5;entryY=0;rounded=0;" edge="1" parent="1" source="KeG7oWH1lTcmquNV3ncV-2" target="KeG7oWH1lTcmquNV3ncV-4">
          <mxGeometry relative="1" as="geometry">
            <Array as="points">
              <mxPoint x="1146" y="320" />
            </Array>
          </mxGeometry>
        </mxCell>
        <mxCell id="KeG7oWH1lTcmquNV3ncV-28" value="" style="curved=1;startArrow=none;endArrow=block;exitX=0.5;exitY=1;entryX=0.5;entryY=-0.01;rounded=0;" edge="1" parent="1" source="KeG7oWH1lTcmquNV3ncV-4" target="KeG7oWH1lTcmquNV3ncV-5">
          <mxGeometry relative="1" as="geometry">
            <Array as="points" />
          </mxGeometry>
        </mxCell>
        <mxCell id="KeG7oWH1lTcmquNV3ncV-29" value="" style="curved=1;startArrow=none;endArrow=block;exitX=0.5;exitY=0.99;entryX=0.5;entryY=-0.01;rounded=0;" edge="1" parent="1" source="KeG7oWH1lTcmquNV3ncV-5" target="KeG7oWH1lTcmquNV3ncV-6">
          <mxGeometry relative="1" as="geometry">
            <Array as="points" />
          </mxGeometry>
        </mxCell>
        <mxCell id="KeG7oWH1lTcmquNV3ncV-30" value="" style="curved=1;startArrow=none;endArrow=block;exitX=0.5;exitY=0.99;entryX=0.5;entryY=-0.01;rounded=0;" edge="1" parent="1" source="KeG7oWH1lTcmquNV3ncV-6" target="KeG7oWH1lTcmquNV3ncV-7">
          <mxGeometry relative="1" as="geometry">
            <Array as="points" />
          </mxGeometry>
        </mxCell>
        <mxCell id="KeG7oWH1lTcmquNV3ncV-31" value="" style="curved=1;startArrow=none;endArrow=block;exitX=0;exitY=0.81;entryX=0.5;entryY=0;rounded=0;" edge="1" parent="1" source="KeG7oWH1lTcmquNV3ncV-7" target="KeG7oWH1lTcmquNV3ncV-8">
          <mxGeometry relative="1" as="geometry">
            <Array as="points">
              <mxPoint x="749" y="855" />
            </Array>
          </mxGeometry>
        </mxCell>
        <mxCell id="KeG7oWH1lTcmquNV3ncV-32" value="" style="curved=1;startArrow=none;endArrow=block;exitX=0.5;exitY=1;entryX=0.5;entryY=0;rounded=0;" edge="1" parent="1" source="KeG7oWH1lTcmquNV3ncV-8" target="KeG7oWH1lTcmquNV3ncV-9">
          <mxGeometry relative="1" as="geometry">
            <Array as="points" />
          </mxGeometry>
        </mxCell>
        <mxCell id="KeG7oWH1lTcmquNV3ncV-33" value="" style="curved=1;startArrow=none;endArrow=block;exitX=0.5;exitY=1;entryX=0.5;entryY=0;rounded=0;" edge="1" parent="1" source="KeG7oWH1lTcmquNV3ncV-9" target="KeG7oWH1lTcmquNV3ncV-10">
          <mxGeometry relative="1" as="geometry">
            <Array as="points" />
          </mxGeometry>
        </mxCell>
        <mxCell id="KeG7oWH1lTcmquNV3ncV-34" value="Is Empty?" style="curved=1;startArrow=none;endArrow=block;exitX=0.5;exitY=1;entryX=0.5;entryY=0;rounded=0;" edge="1" parent="1" source="KeG7oWH1lTcmquNV3ncV-10" target="KeG7oWH1lTcmquNV3ncV-11">
          <mxGeometry relative="1" as="geometry">
            <Array as="points" />
          </mxGeometry>
        </mxCell>
        <mxCell id="KeG7oWH1lTcmquNV3ncV-35" value="Yes" style="curved=1;startArrow=none;endArrow=block;exitX=0;exitY=0.57;entryX=0.5;entryY=0;rounded=0;" edge="1" parent="1" source="KeG7oWH1lTcmquNV3ncV-11" target="KeG7oWH1lTcmquNV3ncV-12">
          <mxGeometry relative="1" as="geometry">
            <Array as="points">
              <mxPoint x="150" y="1426" />
            </Array>
          </mxGeometry>
        </mxCell>
        <mxCell id="KeG7oWH1lTcmquNV3ncV-36" value="" style="curved=1;startArrow=none;endArrow=block;exitX=0.5;exitY=1;entryX=0;entryY=0.34;rounded=0;" edge="1" parent="1" source="KeG7oWH1lTcmquNV3ncV-12" target="KeG7oWH1lTcmquNV3ncV-13">
          <mxGeometry relative="1" as="geometry">
            <Array as="points">
              <mxPoint x="150" y="2193" />
            </Array>
          </mxGeometry>
        </mxCell>
        <mxCell id="KeG7oWH1lTcmquNV3ncV-37" value="No" style="curved=1;startArrow=none;endArrow=block;exitX=1;exitY=0.82;entryX=0.5;entryY=0;rounded=0;" edge="1" parent="1" source="KeG7oWH1lTcmquNV3ncV-11" target="KeG7oWH1lTcmquNV3ncV-14">
          <mxGeometry relative="1" as="geometry">
            <Array as="points">
              <mxPoint x="885" y="1426" />
            </Array>
          </mxGeometry>
        </mxCell>
        <mxCell id="KeG7oWH1lTcmquNV3ncV-38" value="Yes" style="curved=1;startArrow=none;endArrow=block;exitX=0;exitY=0.84;entryX=0.5;entryY=0;rounded=0;" edge="1" parent="1" source="KeG7oWH1lTcmquNV3ncV-14" target="KeG7oWH1lTcmquNV3ncV-15">
          <mxGeometry relative="1" as="geometry">
            <Array as="points">
              <mxPoint x="766" y="1591" />
            </Array>
          </mxGeometry>
        </mxCell>
        <mxCell id="KeG7oWH1lTcmquNV3ncV-39" value="Yes" style="curved=1;startArrow=none;endArrow=block;exitX=0;exitY=0.68;entryX=0.5;entryY=-0.01;rounded=0;" edge="1" parent="1" source="KeG7oWH1lTcmquNV3ncV-15" target="KeG7oWH1lTcmquNV3ncV-16">
          <mxGeometry relative="1" as="geometry">
            <Array as="points">
              <mxPoint x="422" y="1836" />
            </Array>
          </mxGeometry>
        </mxCell>
        <mxCell id="KeG7oWH1lTcmquNV3ncV-40" value="" style="curved=1;startArrow=none;endArrow=block;exitX=0.5;exitY=0.99;entryX=0;entryY=0.22;rounded=0;" edge="1" parent="1" source="KeG7oWH1lTcmquNV3ncV-16" target="KeG7oWH1lTcmquNV3ncV-13">
          <mxGeometry relative="1" as="geometry">
            <Array as="points">
              <mxPoint x="422" y="2193" />
            </Array>
          </mxGeometry>
        </mxCell>
        <mxCell id="KeG7oWH1lTcmquNV3ncV-41" value="No" style="curved=1;startArrow=none;endArrow=block;exitX=0.58;exitY=1;entryX=0.5;entryY=0;rounded=0;" edge="1" parent="1" source="KeG7oWH1lTcmquNV3ncV-15" target="KeG7oWH1lTcmquNV3ncV-17">
          <mxGeometry relative="1" as="geometry">
            <Array as="points">
              <mxPoint x="784" y="1836" />
            </Array>
          </mxGeometry>
        </mxCell>
        <mxCell id="KeG7oWH1lTcmquNV3ncV-42" value="Yes" style="curved=1;startArrow=none;endArrow=block;exitX=0.09;exitY=1;entryX=0.5;entryY=0;rounded=0;" edge="1" parent="1" source="KeG7oWH1lTcmquNV3ncV-17" target="KeG7oWH1lTcmquNV3ncV-18">
          <mxGeometry relative="1" as="geometry">
            <Array as="points">
              <mxPoint x="695" y="2053" />
            </Array>
          </mxGeometry>
        </mxCell>
        <mxCell id="KeG7oWH1lTcmquNV3ncV-43" value="" style="curved=1;startArrow=none;endArrow=block;exitX=0.5;exitY=1;entryX=0.32;entryY=-0.01;rounded=0;" edge="1" parent="1" source="KeG7oWH1lTcmquNV3ncV-18" target="KeG7oWH1lTcmquNV3ncV-13">
          <mxGeometry relative="1" as="geometry">
            <Array as="points">
              <mxPoint x="695" y="2193" />
            </Array>
          </mxGeometry>
        </mxCell>
        <mxCell id="KeG7oWH1lTcmquNV3ncV-44" value="No" style="curved=1;startArrow=none;endArrow=block;exitX=0.91;exitY=1;entryX=0.81;entryY=-0.01;rounded=0;" edge="1" parent="1" source="KeG7oWH1lTcmquNV3ncV-17" target="KeG7oWH1lTcmquNV3ncV-13">
          <mxGeometry relative="1" as="geometry">
            <Array as="points">
              <mxPoint x="872" y="2053" />
              <mxPoint x="872" y="2193" />
            </Array>
          </mxGeometry>
        </mxCell>
        <mxCell id="KeG7oWH1lTcmquNV3ncV-45" value="No" style="curved=1;startArrow=none;endArrow=block;exitX=1;exitY=0.78;entryX=0.5;entryY=0;rounded=0;" edge="1" parent="1" source="KeG7oWH1lTcmquNV3ncV-14" target="KeG7oWH1lTcmquNV3ncV-19">
          <mxGeometry relative="1" as="geometry">
            <Array as="points">
              <mxPoint x="1030" y="1591" />
            </Array>
          </mxGeometry>
        </mxCell>
        <mxCell id="KeG7oWH1lTcmquNV3ncV-46" value="Yes" style="curved=1;startArrow=none;endArrow=block;exitX=0.5;exitY=1;entryX=0.5;entryY=-0.01;rounded=0;" edge="1" parent="1" source="KeG7oWH1lTcmquNV3ncV-19" target="KeG7oWH1lTcmquNV3ncV-20">
          <mxGeometry relative="1" as="geometry">
            <Array as="points" />
          </mxGeometry>
        </mxCell>
        <mxCell id="KeG7oWH1lTcmquNV3ncV-47" value="" style="curved=1;startArrow=none;endArrow=block;exitX=0.5;exitY=0.99;entryX=1;entryY=0.16;rounded=0;" edge="1" parent="1" source="KeG7oWH1lTcmquNV3ncV-20" target="KeG7oWH1lTcmquNV3ncV-13">
          <mxGeometry relative="1" as="geometry">
            <Array as="points">
              <mxPoint x="1030" y="2193" />
            </Array>
          </mxGeometry>
        </mxCell>
        <mxCell id="KeG7oWH1lTcmquNV3ncV-48" value="" style="curved=1;startArrow=none;endArrow=block;exitX=0.5;exitY=0.99;entryX=0.5;entryY=0;rounded=0;" edge="1" parent="1" source="KeG7oWH1lTcmquNV3ncV-13" target="KeG7oWH1lTcmquNV3ncV-21">
          <mxGeometry relative="1" as="geometry">
            <Array as="points" />
          </mxGeometry>
        </mxCell>
        <mxCell id="KeG7oWH1lTcmquNV3ncV-49" value="" style="curved=1;startArrow=none;endArrow=block;exitX=0.5;exitY=1;entryX=0;entryY=0.25;rounded=0;" edge="1" parent="1" source="KeG7oWH1lTcmquNV3ncV-21" target="KeG7oWH1lTcmquNV3ncV-22">
          <mxGeometry relative="1" as="geometry">
            <Array as="points">
              <mxPoint x="760" y="2425" />
            </Array>
          </mxGeometry>
        </mxCell>
        <mxCell id="KeG7oWH1lTcmquNV3ncV-50" value="" style="curved=1;startArrow=none;endArrow=block;exitX=0.68;exitY=0;entryX=0.74;entryY=0.99;rounded=0;" edge="1" parent="1" source="KeG7oWH1lTcmquNV3ncV-22" target="KeG7oWH1lTcmquNV3ncV-7">
          <mxGeometry relative="1" as="geometry">
            <Array as="points">
              <mxPoint x="1266" y="2425" />
              <mxPoint x="1266" y="855" />
            </Array>
          </mxGeometry>
        </mxCell>
        <mxCell id="KeG7oWH1lTcmquNV3ncV-51" value="User Presses Ctrl+C?" style="curved=1;startArrow=none;endArrow=block;exitX=0.36;exitY=0.99;entryX=0;entryY=0.05;rounded=0;" edge="1" parent="1" source="KeG7oWH1lTcmquNV3ncV-7" target="KeG7oWH1lTcmquNV3ncV-23">
          <mxGeometry relative="1" as="geometry">
            <Array as="points">
              <mxPoint x="1076" y="855" />
            </Array>
          </mxGeometry>
        </mxCell>
        <mxCell id="KeG7oWH1lTcmquNV3ncV-52" value="No" style="curved=1;startArrow=none;endArrow=block;exitX=0.72;exitY=0;entryX=0.61;entryY=0.99;rounded=0;" edge="1" parent="1" source="KeG7oWH1lTcmquNV3ncV-23" target="KeG7oWH1lTcmquNV3ncV-7">
          <mxGeometry relative="1" as="geometry">
            <Array as="points">
              <mxPoint x="1200" y="855" />
            </Array>
          </mxGeometry>
        </mxCell>
        <mxCell id="KeG7oWH1lTcmquNV3ncV-53" value="Yes" style="curved=1;startArrow=none;endArrow=block;exitX=0.5;exitY=1.01;entryX=0.5;entryY=-0.01;rounded=0;" edge="1" parent="1" source="KeG7oWH1lTcmquNV3ncV-23" target="KeG7oWH1lTcmquNV3ncV-24">
          <mxGeometry relative="1" as="geometry">
            <Array as="points" />
          </mxGeometry>
        </mxCell>
        <mxCell id="KeG7oWH1lTcmquNV3ncV-54" value="&lt;font face=&quot;Comic Sans MS&quot; style=&quot;font-size: 12px;&quot;&gt;&lt;b&gt;&lt;font&gt;Module 5.2&lt;br&gt;&lt;/font&gt;&lt;/b&gt;&lt;/font&gt;&lt;h6 id=&quot;anonymous_element_21&quot;&gt;&lt;font face=&quot;Comic Sans MS&quot; size=&quot;3&quot;&gt;Forest Fire Simulation: Flowchart&lt;/font&gt;&lt;/h6&gt;" style="text;html=1;align=center;verticalAlign=middle;whiteSpace=wrap;rounded=0;" vertex="1" parent="1">
          <mxGeometry x="600.5" y="80" width="159" height="130" as="geometry" />
        </mxCell>
        <mxCell id="KeG7oWH1lTcmquNV3ncV-55" value="&lt;font face=&quot;Comic Sans MS&quot; style=&quot;font-size: 12px;&quot;&gt;Julio Pochet Edmead&lt;/font&gt;" style="text;html=1;align=center;verticalAlign=middle;whiteSpace=wrap;rounded=0;" vertex="1" parent="1">
          <mxGeometry x="620" y="50" width="120" height="30" as="geometry" />
        </mxCell>
      </root>
    </mxGraphModel>
  </diagram>
</mxfile>
